<svg width="44" height="40" viewBox="0 0 44 40" fill="none" xmlns="http://www.w3.org/2000/svg">
<g filter="url(#filter0_d_1_4051)">
<path fill-rule="evenodd" clip-rule="evenodd" d="M34.2406 2H6.96011C4.39186 2 2 4.41323 2 6.98063V24.4132C2 26.9808 4.39186 29.394 6.96011 29.394H8.2001V35.6199L19.3603 29.394H34.2405C36.8086 29.394 39.2005 26.9806 39.2005 24.4132V6.98063C39.2006 4.41323 36.8087 2 34.2406 2ZM10.6801 18.1929C9.3104 18.1929 8.2001 17.0736 8.2001 15.6927C8.2001 14.312 9.3104 13.1926 10.6801 13.1926C12.0496 13.1926 13.1601 14.312 13.1601 15.6927C13.1601 17.0736 12.0498 18.1929 10.6801 18.1929ZM20.6003 18.1929C19.2306 18.1929 18.1202 17.0736 18.1202 15.6927C18.1202 14.312 19.2306 13.1926 20.6003 13.1926C21.97 13.1926 23.0803 14.312 23.0803 15.6927C23.0803 17.0736 21.9698 18.1929 20.6003 18.1929ZM30.5204 18.1929C29.1507 18.1929 28.0403 17.0736 28.0403 15.6927C28.0403 14.312 29.1507 13.1926 30.5204 13.1926C31.8901 13.1926 33.0004 14.312 33.0004 15.6927C33.0005 17.0736 31.8902 18.1929 30.5204 18.1929Z" fill="#F2F2F2"/>
</g>
<defs>
<filter id="filter0_d_1_4051" x="0" y="0" width="43.2004" height="39.6199" filterUnits="userSpaceOnUse" color-interpolation-filters="sRGB">
<feFlood flood-opacity="0" result="BackgroundImageFix"/>
<feColorMatrix in="SourceAlpha" type="matrix" values="0 0 0 0 0 0 0 0 0 0 0 0 0 0 0 0 0 0 127 0" result="hardAlpha"/>
<feOffset dx="1" dy="1"/>
<feGaussianBlur stdDeviation="1.5"/>
<feComposite in2="hardAlpha" operator="out"/>
<feColorMatrix type="matrix" values="0 0 0 0 0 0 0 0 0 0 0 0 0 0 0 0 0 0 0.2 0"/>
<feBlend mode="normal" in2="BackgroundImageFix" result="effect1_dropShadow_1_4051"/>
<feBlend mode="normal" in="SourceGraphic" in2="effect1_dropShadow_1_4051" result="shape"/>
</filter>
</defs>
</svg>
